<svg xmlns="http://www.w3.org/2000/svg" viewBox="0 0 246.5 97.36"><defs><style>.cls-1{fill:#ba242a;fill-rule:evenodd;}.cls-2{fill:#252323;}.cls-3{fill:#4b4748;}</style></defs><title>logo_1</title><g id="Слой_2" data-name="Слой 2"><g id="Layer_1" data-name="Layer 1"><path class="cls-1" d="M63.44,63.87a3.77,3.77,0,0,1,1-2.76c1.69-1.79,3.61-3.37,5.45-5l-.5-.61-11.89,0,1.07,2.11-3.9-.14-.94-2c-2.69,0-5.37,0-8,0l-.38.23-1.49-.24a3.78,3.78,0,0,1-.66-.11l-.31-.05,0-.08a1.43,1.43,0,0,1-.73-.83h-.27V53l-.51-1.16-1.55,3.49-2.46.4c-.81-.49-4.81-2.86-5.12-3s1.76-7.28,1.76-7.28l7.37.17h.51V12.54l-.35,0c-.26.47-.54.92-.78,1.4-3.62,7.3-7.19,14.63-10.89,21.9a3.79,3.79,0,0,1-2.27,1.84c-3.47.68-7,1.1-10.49,1.61L0,41.7c.89,1,1.47,1.65,2.11,2.27,5.5,5.37,11,10.8,16.58,16.05a5.19,5.19,0,0,1,1.73,5.43C18.85,73.89,17.48,82.37,16,91.19c1-.48,1.63-.8,2.29-1.15,7.29-3.81,14.6-7.59,21.85-11.48a3.54,3.54,0,0,1,3.83,0c7.39,4,14.82,7.85,22.24,11.75A17.3,17.3,0,0,0,68,91c-.1-.68-.15-1-.21-1.42C66.3,81,64.8,72.45,63.44,63.87ZM27.85,57.42,24,57.56l1.67-3.32,2.75-1,1,1Zm2.06-6-7-4.64-2.64-5.82h.87l2.16,1.51,8.39,3.13Zm3.26,4.11,2.54,2.34-.62,1.46-3-1.9ZM43.35,74.63c-.37.06-2,.44-2.11.44s-1.74-.38-2.11-.44-1.62-1.72-1.62-1.72l.57-.46a17.05,17.05,0,0,0,3.16.8,17.28,17.28,0,0,0,3.16-.8l.57.46S43.83,74.57,43.35,74.63Zm2.33-5.2-.24.16-.16-.7-2-1.15-1.16,2L44,70.5l-.79.68-1.91.46-2-.46-.79-.68,1.83-.72-1.16-2-2,1.15-.16.7-.24-.16L34,62.18s3.05-1.83,4.67-3l-.51,3.29,3.1-1.81,3.1,1.81-.51-3.29c1.62,1.2,4.67,3,4.67,3Zm1.17-10.12-.62-1.46,2.54-2.34,1.1,1.9Z"/><path class="cls-2" d="M62.88,15.12V6.48H57.41V43.92h5.47V32.33H60.72V25.85h8.64V46.16A4.31,4.31,0,0,1,65,50.4H55.25a4.36,4.36,0,0,1-4.32-4.24V4.32A4.43,4.43,0,0,1,55.25,0H65a4.33,4.33,0,0,1,4.32,4.32v10.8Z"/><path class="cls-2" d="M87.08,34H81.6V50.4H75.12v-41H88.44a4.33,4.33,0,0,1,4.32,4.32V26.86a3.44,3.44,0,0,1-2.23,3.53,4.25,4.25,0,0,1,3,4.24V50.4H87.08ZM81.6,27.51h4.68V15.84H81.6Z"/><path class="cls-2" d="M99.31,9.36h6.48v41H99.31Z"/><path class="cls-2" d="M111.55,9.36H118V43.92h7.64V50.4H111.55Z"/><path class="cls-2" d="M130,9.36h6.48V43.92h7.63V50.4H130Z"/><path class="cls-2" d="M152,6.48h-5.76V0h18V6.48H158.5V50.4H152Z"/><path class="cls-2" d="M166.42,13.68a4.43,4.43,0,0,1,4.32-4.32h9.79a4.33,4.33,0,0,1,4.32,4.32V46.16a4.31,4.31,0,0,1-4.32,4.24h-9.79a4.36,4.36,0,0,1-4.32-4.24Zm12,2.16H172.9V43.92h5.47Z"/><path class="cls-2" d="M204.72,9.36A4.33,4.33,0,0,1,209,13.68V29.74A4.32,4.32,0,0,1,204.72,34h-7.63V50.4h-6.48v-41Zm-2.16,6.48h-5.47V27.51h5.47Z"/><path class="cls-2" d="M213.36,9.36h6.48v41h-6.48Z"/><path class="cls-2" d="M238.35,43.42h-6.7l-.86,7h-6.92l5.33-41h11.52l5.19,41h-6.7Zm-5.91-6.48h5.11L235,15.84Z"/><path class="cls-3" d="M82,59.38l.79-.12.85-.09.82,0,.74,0a8.73,8.73,0,0,1,1.54.14,4.4,4.4,0,0,1,1.36.5,2.7,2.7,0,0,1,1,1,3,3,0,0,1,.36,1.54,3.63,3.63,0,0,1-.64,2.24A3.24,3.24,0,0,1,87,65.7l.78.5,2.56,4.27H87.86l-2.55-4.38-1.15-.21v4.59H82Zm3.36,1.68-.67,0a2.72,2.72,0,0,0-.5.06v3.25h.93A2.29,2.29,0,0,0,86.54,64a1.59,1.59,0,0,0,.55-1.37,1.45,1.45,0,0,0-.45-1.13A1.9,1.9,0,0,0,85.33,61.06Z"/><path class="cls-3" d="M114.75,59.27h2.08V66.5a5.31,5.31,0,0,1-.29,1.88,3.49,3.49,0,0,1-.8,1.29,3.06,3.06,0,0,1-1.24.75,5.24,5.24,0,0,1-1.62.24q-4.26,0-4.26-3.88V59.27h2.2v7.07a4.52,4.52,0,0,0,.12,1.12,1.74,1.74,0,0,0,.37.73,1.42,1.42,0,0,0,.64.4,3.06,3.06,0,0,0,.9.12,1.76,1.76,0,0,0,1.45-.56,2.9,2.9,0,0,0,.45-1.81Z"/><path class="cls-3" d="M140.61,67.46a1,1,0,0,0-.38-.83,4,4,0,0,0-.94-.58c-.38-.18-.79-.36-1.23-.55a5.94,5.94,0,0,1-1.24-.68,3.81,3.81,0,0,1-.94-1,2.92,2.92,0,0,1-.38-1.55,3.27,3.27,0,0,1,.28-1.42,2.72,2.72,0,0,1,.77-1,3.41,3.41,0,0,1,1.19-.59,5.65,5.65,0,0,1,1.54-.19,9.85,9.85,0,0,1,1.84.16,4.89,4.89,0,0,1,1.42.49l-.68,1.84a4.18,4.18,0,0,0-1.06-.41,6.15,6.15,0,0,0-1.52-.18,2,2,0,0,0-1.18.3,1,1,0,0,0-.4.82,1,1,0,0,0,.37.8,4.43,4.43,0,0,0,1,.59c.37.18.78.37,1.23.56a6.75,6.75,0,0,1,1.23.7,3.49,3.49,0,0,1,.94,1,2.77,2.77,0,0,1,.38,1.49,3.7,3.7,0,0,1-.3,1.55,2.85,2.85,0,0,1-.83,1.08,3.72,3.72,0,0,1-1.29.64,6.33,6.33,0,0,1-1.68.21,8.85,8.85,0,0,1-2.11-.23,6.39,6.39,0,0,1-1.34-.45l.7-1.87.46.21q.27.11.63.21c.23.06.48.11.74.16a5.32,5.32,0,0,0,.81.06,2.83,2.83,0,0,0,1.5-.33A1.11,1.11,0,0,0,140.61,67.46Z"/><path class="cls-3" d="M166.16,67.46a1,1,0,0,0-.38-.83,4,4,0,0,0-.94-.58c-.38-.18-.79-.36-1.23-.55a5.87,5.87,0,0,1-1.23-.68,3.69,3.69,0,0,1-.95-1,2.92,2.92,0,0,1-.37-1.55,3.43,3.43,0,0,1,.27-1.42,2.72,2.72,0,0,1,.77-1,3.37,3.37,0,0,1,1.2-.59,5.57,5.57,0,0,1,1.53-.19,9.77,9.77,0,0,1,1.84.16,5.08,5.08,0,0,1,1.43.49l-.69,1.84a4.18,4.18,0,0,0-1.06-.41,6.09,6.09,0,0,0-1.52-.18,1.94,1.94,0,0,0-1.17.3,1,1,0,0,0-.41.82,1,1,0,0,0,.37.8,4.43,4.43,0,0,0,.95.59c.38.18.79.37,1.23.56a6.75,6.75,0,0,1,1.23.7,3.52,3.52,0,0,1,.95,1,2.77,2.77,0,0,1,.37,1.49,3.86,3.86,0,0,1-.29,1.55,3,3,0,0,1-.84,1.08,3.63,3.63,0,0,1-1.29.64,6.31,6.31,0,0,1-1.67.21,8.94,8.94,0,0,1-2.12-.23A6.6,6.6,0,0,1,160.8,70l.7-1.87.46.21.63.21.75.16a5.29,5.29,0,0,0,.8.06,2.83,2.83,0,0,0,1.5-.33A1.09,1.09,0,0,0,166.16,67.46Z"/><path class="cls-3" d="M187.1,59.27h2.2v11.2h-2.2Z"/><path class="cls-3" d="M214,68h-3.44l-.85,2.48h-2.19l4-11.28h1.62l4,11.28h-2.3Zm-2.88-1.76h2.4l-.83-2.49L212.38,62h-.08L212,63.75Z"/><path class="cls-3" d="M238.05,64.63l-.88-1.76h-.08l.25,1.76v5.84h-2.08V59.19h1.6l4.24,6,.85,1.71H242l-.25-1.71V59.27h2.08V70.55h-1.6Z"/><path class="cls-3" d="M91.1,83.07a3.74,3.74,0,0,1-.13,1,2.61,2.61,0,0,1-.4.9,3,3,0,0,1-.74.72,3.39,3.39,0,0,1-1.09.47v.11a4.4,4.4,0,0,1,1.07.32,2.67,2.67,0,0,1,.89.63,3.06,3.06,0,0,1,.6,1,3.91,3.91,0,0,1,.21,1.35,3.46,3.46,0,0,1-.43,1.77,3.62,3.62,0,0,1-1.17,1.23,5.26,5.26,0,0,1-1.66.7,8.14,8.14,0,0,1-1.92.23H85.5l-1.08,0-1.18-.08a10,10,0,0,1-1.09-.17V80.07L83,80c.32,0,.65-.07,1-.09s.72,0,1.09-.06l1.12,0a12,12,0,0,1,1.81.14,5.33,5.33,0,0,1,1.58.51,2.89,2.89,0,0,1,1.11,1A3,3,0,0,1,91.1,83.07Zm-5.57,2.49.62,0a4,4,0,0,0,.58-.06A3.32,3.32,0,0,0,88,84.8a1.47,1.47,0,0,0,.52-1.18,1.54,1.54,0,0,0-.19-.81,1.44,1.44,0,0,0-.5-.51,2.31,2.31,0,0,0-.71-.26,4.61,4.61,0,0,0-.84-.07h-.91l-.65.06v3.52Zm.82,5.72a3.39,3.39,0,0,0,.91-.12,2.34,2.34,0,0,0,.77-.34,1.72,1.72,0,0,0,.54-.6,1.64,1.64,0,0,0,.21-.84,1.54,1.54,0,0,0-.88-1.54,2.67,2.67,0,0,0-.87-.25,8,8,0,0,0-1-.06H84.69v3.63a1,1,0,0,0,.3.06l.44,0,.49,0Z"/><path class="cls-3" d="M104.11,90.33H100l-1,2.94h-2.6l4.79-13.39h1.91l4.79,13.39h-2.73Zm-3.42-2.09h2.85l-1-3-.4-2.09h-.09l-.4,2.11Z"/><path class="cls-3" d="M113.23,80.1l.94-.14c.34,0,.67-.08,1-.1l1-.06.87,0a10.33,10.33,0,0,1,1.84.17,5.15,5.15,0,0,1,1.61.59,3.14,3.14,0,0,1,1.14,1.15,3.54,3.54,0,0,1,.43,1.83,4.39,4.39,0,0,1-.76,2.66,3.94,3.94,0,0,1-2,1.43l.94.59,3,5.07h-3l-3-5.21-1.37-.24v5.45h-2.6Zm4,2-.79,0a3.53,3.53,0,0,0-.6.07v3.86h1.11a2.8,2.8,0,0,0,1.73-.49,1.94,1.94,0,0,0,.64-1.64,1.75,1.75,0,0,0-.53-1.34A2.26,2.26,0,0,0,117.22,82.1Z"/><path class="cls-3" d="M137.8,83.07a4.19,4.19,0,0,1-.12,1,2.84,2.84,0,0,1-.41.9,3,3,0,0,1-.74.72,3.3,3.3,0,0,1-1.09.47v.11a4.27,4.27,0,0,1,1.07.32,2.57,2.57,0,0,1,.89.63,2.89,2.89,0,0,1,.6,1,3.9,3.9,0,0,1,.22,1.35,3.47,3.47,0,0,1-.44,1.77,3.62,3.62,0,0,1-1.17,1.23,5.26,5.26,0,0,1-1.66.7,8.14,8.14,0,0,1-1.92.23h-.83l-1.08,0-1.18-.08a10,10,0,0,1-1.09-.17V80.07l.83-.12q.47-.06,1-.09c.36,0,.72,0,1.1-.06l1.11,0a12,12,0,0,1,1.81.14,5.33,5.33,0,0,1,1.58.51,2.89,2.89,0,0,1,1.11,1A3,3,0,0,1,137.8,83.07Zm-5.57,2.49.62,0a4,4,0,0,0,.58-.06,3.32,3.32,0,0,0,1.24-.68,1.48,1.48,0,0,0,.53-1.18,1.64,1.64,0,0,0-.19-.81,1.55,1.55,0,0,0-.51-.51,2.22,2.22,0,0,0-.71-.26A4.53,4.53,0,0,0,133,82H132l-.64.06v3.52Zm.83,5.72a3.37,3.37,0,0,0,.9-.12,2.34,2.34,0,0,0,.77-.34,1.86,1.86,0,0,0,.55-.6,2,2,0,0,0,0-1.82,1.58,1.58,0,0,0-.64-.56,2.67,2.67,0,0,0-.87-.25,8,8,0,0,0-1-.06H131.4v3.63a.85.85,0,0,0,.29.06l.44,0,.49,0Z"/><path class="cls-3" d="M144.26,80h7.88v2.32h-5.28v3.1h4.81V87.7h-4.81V91h5.38v2.32h-8Z"/><path class="cls-3" d="M157.94,86.62a8,8,0,0,1,1.46-5.12,5.08,5.08,0,0,1,4.18-1.79,5.85,5.85,0,0,1,2.49.49,4.77,4.77,0,0,1,1.77,1.4,6.18,6.18,0,0,1,1,2.19,10.82,10.82,0,0,1,.34,2.83,7.89,7.89,0,0,1-1.47,5.12,5.08,5.08,0,0,1-4.17,1.8,5.92,5.92,0,0,1-2.51-.5,4.54,4.54,0,0,1-1.75-1.4,6.18,6.18,0,0,1-1-2.19A10.82,10.82,0,0,1,157.94,86.62Zm2.73,0a9.63,9.63,0,0,0,.17,1.85,4.82,4.82,0,0,0,.53,1.46,2.65,2.65,0,0,0,.9.95,2.5,2.5,0,0,0,1.31.34,2.47,2.47,0,0,0,2.15-1.08,6.36,6.36,0,0,0,.76-3.52,10,10,0,0,0-.16-1.8,5.09,5.09,0,0,0-.51-1.47,2.64,2.64,0,0,0-.89-1,2.51,2.51,0,0,0-1.35-.35,2.47,2.47,0,0,0-2.15,1.11A6.38,6.38,0,0,0,160.67,86.62Zm9.88,10.49a7.16,7.16,0,0,1-1.84.25,9,9,0,0,1-1.88-.2c-.61-.14-1.2-.28-1.77-.43l-1.65-.43a6.33,6.33,0,0,0-1.5-.2,3.1,3.1,0,0,0-.87.12V94a5.62,5.62,0,0,1,1.1-.11,6.5,6.5,0,0,1,1.58.19c.53.12,1.06.26,1.61.4s1.1.28,1.67.4a8.1,8.1,0,0,0,1.81.19,8.4,8.4,0,0,0,.85-.05,7.25,7.25,0,0,0,.89-.16Z"/><path class="cls-3" d="M182.49,80H185v8.59a6.39,6.39,0,0,1-.35,2.22,4,4,0,0,1-1,1.54,3.59,3.59,0,0,1-1.48.89,6.14,6.14,0,0,1-1.92.29q-5.06,0-5-4.62V80h2.6v8.4a5,5,0,0,0,.15,1.32,2,2,0,0,0,.44.87,1.68,1.68,0,0,0,.76.48,3.75,3.75,0,0,0,1.07.14,2.08,2.08,0,0,0,1.72-.66,3.43,3.43,0,0,0,.54-2.15Z"/><path class="cls-3" d="M191.36,80h7.88v2.32H194v3.1h4.81V87.7H194V91h5.38v2.32h-8Z"/><path class="cls-3" d="M217.75,86.39l-1.05-2.14h-.09l.3,2.09v6.93h-2.47V79.88h1.9l4.75,7,1,2.09h.12l-.31-2V80h2.47v13.4h-1.88Zm7.6-3.42a3.78,3.78,0,0,1,.25-1.46,2.58,2.58,0,0,1,1.73-1.59,4.82,4.82,0,0,1,1.34-.18,5,5,0,0,1,1.33.17,2.89,2.89,0,0,1,1.06.55,2.49,2.49,0,0,1,.69,1,4.69,4.69,0,0,1,0,3,2.42,2.42,0,0,1-.69,1A2.75,2.75,0,0,1,230,86a4.61,4.61,0,0,1-1.33.17,4.82,4.82,0,0,1-1.34-.17,2.64,2.64,0,0,1-1.05-.55,2.5,2.5,0,0,1-.68-1A3.94,3.94,0,0,1,225.35,83Zm.4,4.2h6v2.11h-6Zm1.8-4.2c0,1.09.38,1.64,1.12,1.64a1,1,0,0,0,.85-.36,2.28,2.28,0,0,0,.26-1.28,2.31,2.31,0,0,0-.26-1.27,1,1,0,0,0-.85-.36,1,1,0,0,0-.85.36A2.22,2.22,0,0,0,227.55,83Z"/><path class="cls-3" d="M238.92,91.18h2.64v-7.5l.28-1.3-.91,1.12-1.69,1.16-1.05-1.42,4.34-3.5h1.38V91.18h2.59v2.09h-7.58Z"/></g></g></svg>